<svg width="438" height="434" viewBox="0 0 438 434" fill="none" xmlns="http://www.w3.org/2000/svg">
<path d="M159.675 182.368C159.681 174.88 164.879 168.397 172.187 166.764L325.217 132.58C335.218 130.345 344.712 137.958 344.705 148.206L344.593 305.007C344.587 312.495 339.389 318.978 332.081 320.611L179.052 354.795C169.05 357.029 159.556 349.417 159.563 339.169L159.675 182.368Z" fill="#D9D9D9"/>
<path d="M126.909 156.094C126.914 148.605 132.112 142.122 139.42 140.49L292.45 106.305C302.451 104.071 311.945 111.684 311.938 121.932L311.826 278.733C311.821 286.221 306.622 292.704 299.314 294.337L146.285 328.521C136.283 330.755 126.789 323.143 126.797 312.895L126.909 156.094Z" fill="#624C9C"/>
<path d="M93.3614 129.194C93.3668 121.706 98.5651 115.223 105.873 113.59L258.903 79.4058C268.904 77.1716 278.398 84.7845 278.391 95.0324L278.279 251.833C278.273 259.322 273.075 265.805 265.767 267.437L112.738 301.621C102.736 303.856 93.2421 296.243 93.2494 285.995L93.3614 129.194Z" fill="#8C78C4"/>
</svg>
